<?xml version="1.0" encoding="utf-8"?>
<!-- Generator: Adobe Illustrator 15.0.0, SVG Export Plug-In . SVG Version: 6.00 Build 0)  -->
<!DOCTYPE svg PUBLIC "-//W3C//DTD SVG 1.1//EN" "http://www.w3.org/Graphics/SVG/1.1/DTD/svg11.dtd">
<svg version="1.1" id="Ebene_1" xmlns="http://www.w3.org/2000/svg" xmlns:xlink="http://www.w3.org/1999/xlink" x="0px" y="0px"
	 width="119.91" height="83.91" viewBox="0 0 119.91 83.91" enable-background="new 0 0 119.91 83.91" xml:space="preserve">
<g>
	<path fill-rule="evenodd" clip-rule="evenodd" d="M30.039,2.548c-3.724,0-6.659,0.525-9.535,1.711
		c-5.474,2.272-8.181,5.904-8.181,11.041c0,3.634,1.296,6.22,4.174,8.49c3.159,2.517,7.504,3.704,13.372,3.704
		c4.628,0,9.028-0.698,13.033-2.166V13.728H27.725l1.016,3.983h5.981v5.522c-1.298,0.418-2.708,0.593-4.458,0.593
		c-2.539,0-4.682-0.489-6.15-1.363c-1.973-1.222-2.933-3.46-2.933-6.917c0-3.635,0.675-6.256,3.328-7.828
		c1.354-0.803,3.331-1.223,5.643-1.223c2.99,0,5.643,0.595,8.182,1.887l4.175-3.041C39.066,3.491,34.778,2.548,30.039,2.548
		L30.039,2.548z"/>
	<polygon fill-rule="evenodd" clip-rule="evenodd" points="53.317,27.216 61.217,27.216 61.217,16.49 71.203,16.49 71.203,12.507 
		61.217,12.507 61.217,6.95 73.686,6.95 74.587,3.002 53.317,3.002 53.317,27.216 	"/>
	<path fill-rule="evenodd" clip-rule="evenodd" d="M83.212,6.986h12.076c2.369,0,4.004-0.176,4.004-0.176s-1.353,1.083-2.425,2.202
		L82.422,23.791v3.425h24.487l2.031-3.983H95.737c-1.578,0-3.894,0.139-3.894,0.139s1.186-0.838,2.033-1.712l14.558-15.199V2.933
		H84.961L83.212,6.986L83.212,6.986z"/>
	<path fill-rule="evenodd" clip-rule="evenodd" fill="#005B9D" d="M119.697,53.347c-36.543-8.924-83.231-8.78-119.546,0.244
		C30.645,38.794,88.76,38.653,119.697,53.347L119.697,53.347z"/>
	<path fill-rule="evenodd" clip-rule="evenodd" d="M12.312,70.631v8.826h2.86v-3.243h1.574c1.575,0,2.188-0.1,2.841-0.29
		c1.553-0.454,2.452-1.416,2.452-2.581c0-1.014-0.715-1.824-2.042-2.278c-0.797-0.279-1.533-0.434-3.945-0.434H12.312L12.312,70.631
		z M15.172,72.064h1.819c0.614,0,1.104,0.126,1.431,0.365c0.327,0.227,0.491,0.546,0.491,0.949c0,0.419-0.101,0.7-0.348,0.938
		c-0.386,0.365-0.735,0.455-1.9,0.455h-1.492V72.064L15.172,72.064z"/>
	<path fill-rule="evenodd" clip-rule="evenodd" d="M36.438,75.989c0-2.267-2.188-3.407-5.292-3.407
		c-3.312,0-5.355,1.293-5.355,3.521c0,2.025,1.962,3.454,5.455,3.454C34.702,79.557,36.438,78.116,36.438,75.989L36.438,75.989z
		 M33.312,75.989c0,1.797-0.776,2.378-2.207,2.378c-1.533,0-2.269-0.507-2.269-2.216c0-1.542,0.654-2.366,2.269-2.366
		C32.801,73.785,33.312,74.609,33.312,75.989L33.312,75.989z"/>
	<path fill-rule="evenodd" clip-rule="evenodd" d="M49.467,72.671h-8.91v1.342h2.841v5.444h2.8v-5.444h2.739
		C48.937,74.013,49.489,72.671,49.467,72.671L49.467,72.671z"/>
	<path fill-rule="evenodd" clip-rule="evenodd" d="M62.509,77.229c0-1.04-1.184-1.696-3.105-1.977l-1.472-0.214
		c-0.919-0.127-1.145-0.279-1.145-0.606c0-0.382,0.613-0.62,1.471-0.62c0.859,0,1.82,0.163,2.861,0.505l1.288-1.179
		c-1.021-0.416-2.718-0.695-4.21-0.695c-2.634,0-4.455,0.909-4.455,2.166c0,0.378,0.143,0.721,0.449,1.051
		c0.409,0.454,1.207,0.771,2.393,0.959l1.39,0.204c1,0.126,1.43,0.392,1.43,0.759c0,0.471-0.655,0.67-1.943,0.67
		c-1.205,0-2.124-0.199-3.27-0.504l-0.898,1.291c1.329,0.392,2.697,0.57,4.026,0.57C60.445,79.609,62.509,78.673,62.509,77.229
		L62.509,77.229z"/>
	<path fill-rule="evenodd" clip-rule="evenodd" d="M77.002,76.129c0-2.05-1.636-3.206-4.313-3.395
		c-0.47-0.039-1.533-0.039-2.249-0.039h-2.412v6.762h2.842c0.837,0,1.391,0,1.86-0.038C75.182,79.229,77.002,78.103,77.002,76.129
		L77.002,76.129z M73.955,76.267c0,1.469-0.858,1.873-1.838,1.873h-1.307v-4.201h1.001C73.508,73.938,73.955,74.784,73.955,76.267
		L73.955,76.267z"/>
	<path fill-rule="evenodd" clip-rule="evenodd" d="M91.577,79.457l-3.8-6.822h-2.784l-4.045,6.822h2.883l0.776-1.442h3.247
		l0.839,1.442H91.577L91.577,79.457z M87.244,76.761h-1.983c0.327-0.722,0.799-1.837,1.023-2.521
		C86.488,74.924,86.934,76.051,87.244,76.761L87.244,76.761z"/>
	<path fill-rule="evenodd" clip-rule="evenodd" d="M108.542,79.457l-1.121-6.786h-3.434l-1.452,3.077
		c-0.182,0.394-0.326,0.798-0.469,1.214c-0.125-0.429-0.247-0.709-0.451-1.15l-1.389-3.141h-3.414l-1.183,6.786h2.756l0.348-3.243
		c0.064-0.414,0.103-0.897,0.123-1.365c0.164,0.544,0.388,1.065,0.533,1.365l1.47,3.231h2.331l1.634-3.331
		c0.185-0.354,0.408-0.722,0.552-1.113c0.041,0.469,0.083,0.799,0.123,1.15l0.368,3.306H108.542L108.542,79.457z"/>
	<path d="M16.83,66.432v-3.735h-3.521v3.735h-0.974v-7.723h0.974v3.229h3.521v-3.229h0.998v7.723H16.83L16.83,66.432z
		 M23.528,63.109c-0.007-0.307-0.034-0.56-0.079-0.753c-0.043-0.196-0.112-0.359-0.201-0.497c-0.105-0.149-0.255-0.268-0.45-0.36
		c-0.194-0.087-0.409-0.134-0.646-0.134c-0.885,0-1.352,0.58-1.4,1.744H23.528L23.528,63.109z M20.753,63.773v0.137
		c0,0.265,0.019,0.496,0.059,0.696c0.041,0.202,0.114,0.379,0.221,0.531c0.17,0.239,0.388,0.415,0.652,0.523
		c0.262,0.108,0.55,0.162,0.858,0.162c0.577,0,1.071-0.177,1.486-0.529l0.364,0.563c-0.268,0.224-0.578,0.397-0.932,0.516
		c-0.353,0.122-0.724,0.181-1.114,0.181c-0.844,0-1.504-0.265-1.979-0.792c-0.476-0.529-0.712-1.261-0.712-2.189
		c0-0.474,0.057-0.873,0.17-1.198c0.114-0.327,0.301-0.635,0.561-0.92c0.479-0.518,1.083-0.777,1.815-0.777
		c0.673,0,1.222,0.204,1.643,0.609c0.13,0.128,0.241,0.258,0.332,0.394c0.088,0.136,0.159,0.294,0.211,0.475
		c0.053,0.181,0.092,0.387,0.116,0.628c0.025,0.241,0.036,0.531,0.036,0.868v0.123H20.753L20.753,63.773z M27.865,66.418
		c-0.122,0.054-0.221,0.087-0.298,0.101c-0.077,0.016-0.181,0.024-0.311,0.024c-0.301,0-0.542-0.077-0.719-0.236
		c-0.097-0.083-0.172-0.184-0.22-0.309c-0.049-0.123-0.074-0.288-0.074-0.491v-5.942c0-0.366-0.024-0.651-0.073-0.85
		c-0.047-0.2-0.073-0.297-0.073-0.297l0.95-0.17c0,0,0.026,0.115,0.079,0.341c0.052,0.23,0.08,0.558,0.08,0.985v5.73
		c0,0.219,0.022,0.367,0.066,0.444c0.045,0.079,0.136,0.121,0.274,0.121c0.016,0,0.042-0.004,0.074-0.013
		c0.032-0.007,0.048-0.012,0.048-0.012L27.865,66.418L27.865,66.418z M36.002,66.432V62.29c0-0.551-0.261-0.825-0.78-0.825
		c-0.275,0-0.535,0.078-0.773,0.23c-0.241,0.154-0.518,0.371-0.835,0.64v4.097h-0.962v-3.986c0-0.173-0.012-0.314-0.038-0.427
		c-0.024-0.113-0.068-0.211-0.133-0.292c-0.138-0.151-0.347-0.228-0.621-0.228c-0.236,0-0.474,0.059-0.713,0.176
		c-0.239,0.116-0.518,0.305-0.834,0.568v4.188H29.4v-4.346c0-0.406-0.037-0.706-0.109-0.901c-0.073-0.196-0.11-0.292-0.11-0.292
		l0.926-0.202c0.008,0.007,0.027,0.049,0.061,0.123c0.032,0.074,0.066,0.181,0.104,0.317c0.037,0.135,0.056,0.267,0.056,0.393
		c0.096-0.105,0.215-0.208,0.353-0.31s0.286-0.192,0.443-0.271c0.158-0.08,0.322-0.141,0.489-0.189
		c0.166-0.052,0.325-0.077,0.48-0.077c0.3,0,0.583,0.082,0.847,0.243c0.265,0.163,0.454,0.395,0.566,0.691
		c0.292-0.281,0.613-0.51,0.963-0.68c0.349-0.168,0.677-0.255,0.986-0.255c0.455,0,0.823,0.143,1.102,0.425
		c0.281,0.281,0.421,0.646,0.421,1.098v4.232H36.002L36.002,66.432z M42.824,66.432V62.56c0-0.21-0.016-0.382-0.049-0.513
		c-0.033-0.132-0.093-0.239-0.183-0.32c-0.073-0.068-0.171-0.122-0.292-0.167c-0.123-0.04-0.262-0.061-0.414-0.061
		c-0.293,0-0.596,0.083-0.908,0.249c-0.312,0.165-0.599,0.397-0.859,0.697v3.986h-0.95V59.52c0-0.368-0.026-0.65-0.08-0.854
		c-0.051-0.195-0.079-0.297-0.079-0.297l0.951-0.166c0,0,0.025,0.113,0.078,0.342s0.079,0.558,0.079,0.986v1.306
		c0,0.18-0.005,0.353-0.018,0.518c-0.012,0.164-0.017,0.247-0.017,0.247c0.275-0.237,0.584-0.449,0.924-0.624
		c0.342-0.175,0.708-0.267,1.097-0.267c0.366,0,0.696,0.084,0.987,0.248c0.292,0.168,0.482,0.38,0.572,0.643
		c0.042,0.11,0.067,0.226,0.08,0.336c0.012,0.115,0.018,0.271,0.018,0.475v4.02H42.824L42.824,66.432z M49.669,63.784
		c0-0.772-0.094-1.334-0.281-1.688c-0.13-0.249-0.314-0.429-0.554-0.548c-0.24-0.112-0.486-0.174-0.736-0.174
		c-0.27,0-0.516,0.058-0.744,0.163c-0.228,0.11-0.394,0.258-0.5,0.446c-0.097,0.171-0.17,0.377-0.219,0.609
		c-0.049,0.232-0.074,0.516-0.074,0.854c0,0.399,0.035,0.761,0.104,1.087c0.07,0.327,0.16,0.575,0.274,0.746
		c0.114,0.175,0.282,0.312,0.506,0.413c0.224,0.104,0.465,0.152,0.726,0.152c0.315,0,0.587-0.071,0.815-0.219
		c0.227-0.147,0.392-0.356,0.499-0.625c0.064-0.174,0.111-0.352,0.139-0.527C49.655,64.294,49.669,64.064,49.669,63.784
		L49.669,63.784z M50.753,63.719c0,0.465-0.064,0.875-0.195,1.232c-0.129,0.355-0.311,0.654-0.541,0.895
		c-0.232,0.24-0.507,0.424-0.823,0.545c-0.317,0.123-0.665,0.187-1.047,0.187c-0.836,0-1.481-0.267-1.937-0.799
		c-0.454-0.533-0.682-1.263-0.682-2.185c0-0.914,0.229-1.635,0.688-2.155c0.458-0.521,1.09-0.781,1.893-0.781
		c0.512,0,0.934,0.094,1.267,0.279c0.333,0.19,0.605,0.423,0.817,0.699c0.186,0.255,0.327,0.553,0.42,0.89
		C50.707,62.862,50.753,63.261,50.753,63.719L50.753,63.719z M54.079,66.418c-0.122,0.054-0.222,0.087-0.3,0.101
		c-0.076,0.016-0.18,0.024-0.31,0.024c-0.3,0-0.54-0.077-0.719-0.236c-0.097-0.083-0.169-0.184-0.218-0.309
		c-0.048-0.123-0.073-0.288-0.073-0.491v-5.942c0-0.366-0.024-0.651-0.073-0.85c-0.048-0.2-0.073-0.297-0.073-0.297l0.95-0.17
		c0,0,0.026,0.115,0.08,0.341c0.053,0.23,0.079,0.558,0.079,0.985v5.73c0,0.219,0.022,0.367,0.067,0.444
		c0.044,0.079,0.135,0.121,0.274,0.121c0.015,0,0.041-0.004,0.073-0.013c0.033-0.007,0.049-0.012,0.049-0.012L54.079,66.418
		L54.079,66.418z M57.819,61.488h-1.267v3.616c0,0.313,0.054,0.532,0.163,0.652c0.11,0.118,0.314,0.181,0.617,0.181
		c0.139,0,0.249-0.013,0.334-0.029c0.085-0.02,0.173-0.047,0.261-0.085l0.135,0.561c-0.31,0.15-0.667,0.227-1.073,0.227
		c-0.163,0-0.307-0.013-0.433-0.038c-0.126-0.028-0.246-0.067-0.359-0.12c-0.21-0.098-0.362-0.236-0.451-0.412
		c-0.088-0.183-0.133-0.415-0.133-0.699v-3.853h-0.791v-0.664h0.791c0-0.134,0.004-0.285,0.014-0.449
		c0.006-0.168,0.017-0.319,0.028-0.464c0.013-0.143,0.025-0.26,0.038-0.357c0.012-0.098,0.019-0.146,0.019-0.146l0.999-0.203
		c0,0-0.007,0.049-0.018,0.147c-0.012,0.096-0.027,0.223-0.043,0.384c-0.017,0.155-0.031,0.33-0.042,0.521
		c-0.01,0.191-0.018,0.381-0.018,0.567h1.521L57.819,61.488L57.819,61.488z M62.825,66.432h-4.047v-0.675l3.304-4.233h-3.046v-0.699
		h4.043v0.72l-3.153,4.213h3.35L62.825,66.432L62.825,66.432z M64.249,63.853v-0.854h2.327v0.854H64.249L64.249,63.853z
		 M72.385,66.432h-4.958v-0.709l3.57-5.507c0.162-0.241,0.294-0.422,0.389-0.55c0.098-0.128,0.146-0.192,0.146-0.192
		s-0.08,0.004-0.237,0.007c-0.158,0.005-0.366,0.005-0.625,0.005h-3.119l0.281-0.776h4.763v0.788l-3.473,5.414
		c-0.139,0.218-0.257,0.396-0.358,0.535c-0.103,0.138-0.151,0.206-0.151,0.206s0.069-0.001,0.216-0.005
		c0.147-0.003,0.314-0.005,0.501-0.005h3.313L72.385,66.432L72.385,66.432z M77.369,63.109c-0.01-0.307-0.034-0.56-0.082-0.753
		c-0.041-0.196-0.109-0.359-0.2-0.497c-0.103-0.149-0.255-0.268-0.45-0.36c-0.194-0.087-0.411-0.134-0.646-0.134
		c-0.885,0-1.353,0.58-1.401,1.744H77.369L77.369,63.109z M74.59,63.773v0.137c0,0.265,0.021,0.496,0.061,0.696
		c0.042,0.202,0.117,0.379,0.22,0.531c0.171,0.239,0.387,0.415,0.651,0.523c0.266,0.108,0.553,0.162,0.861,0.162
		c0.576,0,1.068-0.177,1.484-0.529l0.364,0.563c-0.267,0.224-0.577,0.397-0.93,0.516c-0.353,0.122-0.724,0.181-1.117,0.181
		c-0.843,0-1.502-0.265-1.975-0.792c-0.478-0.529-0.716-1.261-0.716-2.189c0-0.474,0.056-0.873,0.172-1.198
		c0.115-0.327,0.299-0.635,0.56-0.92c0.48-0.518,1.086-0.777,1.814-0.777c0.675,0,1.223,0.204,1.646,0.609
		c0.128,0.128,0.238,0.258,0.325,0.394c0.092,0.136,0.163,0.294,0.214,0.475c0.055,0.181,0.094,0.387,0.116,0.628
		c0.026,0.241,0.037,0.531,0.037,0.868v0.123H74.59L74.59,63.773z M83.579,66.432v-3.794c0-0.152-0.003-0.271-0.011-0.37
		c-0.009-0.099-0.021-0.182-0.038-0.249c-0.017-0.068-0.039-0.127-0.066-0.177c-0.029-0.048-0.063-0.094-0.104-0.138
		c-0.147-0.16-0.368-0.239-0.67-0.239c-0.121,0-0.259,0.021-0.405,0.063c-0.152,0.042-0.304,0.098-0.454,0.167
		c-0.149,0.073-0.298,0.156-0.442,0.255c-0.146,0.099-0.273,0.2-0.378,0.306v4.176h-0.928v-4.325c0-0.402-0.037-0.702-0.115-0.893
		c-0.076-0.192-0.114-0.289-0.114-0.289l0.926-0.234c0.01,0.007,0.029,0.049,0.063,0.123c0.029,0.074,0.063,0.182,0.1,0.321
		c0.036,0.138,0.055,0.283,0.055,0.433c0.625-0.579,1.264-0.866,1.913-0.866c0.335,0,0.633,0.073,0.902,0.224
		c0.268,0.152,0.463,0.352,0.583,0.599c0.1,0.203,0.148,0.417,0.148,0.651v4.257H83.579L83.579,66.432z M88.939,61.488h-1.266v3.616
		c0,0.313,0.055,0.532,0.162,0.652c0.11,0.118,0.316,0.181,0.617,0.181c0.139,0,0.25-0.013,0.333-0.029
		c0.087-0.02,0.173-0.047,0.265-0.085l0.132,0.561c-0.31,0.15-0.665,0.227-1.071,0.227c-0.163,0-0.31-0.013-0.431-0.038
		c-0.127-0.028-0.246-0.067-0.36-0.12c-0.211-0.098-0.362-0.236-0.455-0.412c-0.086-0.183-0.131-0.415-0.131-0.699v-3.853h-0.791
		v-0.664h0.791c0-0.134,0.005-0.285,0.015-0.449c0.006-0.168,0.019-0.319,0.029-0.464c0.011-0.143,0.023-0.26,0.037-0.357
		c0.011-0.098,0.016-0.146,0.016-0.146l0.999-0.203c0,0-0.005,0.049-0.019,0.147c-0.012,0.096-0.024,0.223-0.039,0.384
		c-0.018,0.155-0.032,0.33-0.044,0.521c-0.013,0.191-0.019,0.381-0.019,0.567h1.524L88.939,61.488L88.939,61.488z M93.094,61.67
		c-0.083-0.031-0.172-0.046-0.268-0.046c-0.382,0-0.72,0.136-1.012,0.408c-0.139,0.123-0.229,0.248-0.28,0.364
		c-0.046,0.113-0.073,0.29-0.073,0.523v3.512h-0.95v-4.325c0-0.412-0.034-0.713-0.102-0.903c-0.071-0.193-0.104-0.289-0.104-0.289
		l0.951-0.237c0.007,0.009,0.025,0.054,0.06,0.131c0.032,0.08,0.063,0.192,0.097,0.337c0.032,0.147,0.044,0.298,0.037,0.447
		c0.219-0.287,0.479-0.514,0.785-0.685c0.305-0.167,0.611-0.25,0.918-0.25c0.082,0,0.157,0.01,0.228,0.025
		c0.07,0.02,0.104,0.028,0.104,0.028L93.094,61.67L93.094,61.67z M98.611,66.666c-0.203-0.151-0.354-0.292-0.45-0.421
		c-0.098-0.13-0.168-0.291-0.207-0.477c-0.461,0.569-1.105,0.853-1.925,0.853c-0.391,0-0.721-0.072-0.994-0.214
		c-0.271-0.14-0.47-0.336-0.602-0.584c-0.056-0.105-0.097-0.229-0.121-0.372c-0.023-0.143-0.037-0.294-0.037-0.461v-4.12
		l0.938-0.169v4.029c0,0.263,0.025,0.466,0.078,0.604c0.051,0.141,0.149,0.252,0.286,0.343c0.099,0.061,0.21,0.107,0.342,0.141
		c0.129,0.034,0.262,0.053,0.401,0.053c0.303,0,0.594-0.094,0.878-0.278c0.284-0.183,0.507-0.429,0.669-0.737v-3.974l0.939-0.145
		v4.085c0,0.353,0.028,0.617,0.088,0.792c0.064,0.18,0.172,0.329,0.324,0.458L98.611,66.666L98.611,66.666z M107.603,66.432V62.29
		c0-0.551-0.262-0.825-0.781-0.825c-0.277,0-0.534,0.078-0.773,0.23c-0.24,0.154-0.519,0.371-0.835,0.64v4.097h-0.961v-3.986
		c0-0.173-0.014-0.314-0.037-0.427c-0.024-0.113-0.068-0.211-0.133-0.292c-0.139-0.151-0.348-0.228-0.623-0.228
		c-0.232,0-0.472,0.059-0.713,0.176c-0.238,0.116-0.514,0.305-0.834,0.568v4.188h-0.913v-4.346c0-0.406-0.035-0.706-0.11-0.901
		c-0.071-0.196-0.11-0.292-0.11-0.292l0.924-0.202c0.01,0.007,0.031,0.049,0.063,0.123c0.033,0.074,0.067,0.181,0.103,0.317
		c0.038,0.135,0.058,0.267,0.058,0.393c0.096-0.105,0.214-0.208,0.353-0.31s0.287-0.192,0.443-0.271
		c0.159-0.08,0.32-0.141,0.488-0.189c0.165-0.052,0.326-0.077,0.479-0.077c0.303,0,0.583,0.082,0.846,0.243
		c0.268,0.163,0.454,0.395,0.569,0.691c0.293-0.281,0.612-0.51,0.962-0.68c0.349-0.168,0.677-0.255,0.988-0.255
		c0.451,0,0.819,0.143,1.1,0.425c0.281,0.281,0.42,0.646,0.42,1.098v4.232H107.603L107.603,66.432z"/>
</g>
</svg>
